<?xml version="1.0" standalone="no"?>
<!DOCTYPE svg PUBLIC "-//W3C//DTD SVG 20010904//EN"
 "http://www.w3.org/TR/2001/REC-SVG-20010904/DTD/svg10.dtd">
<svg version="1.0" xmlns="http://www.w3.org/2000/svg"
 width="200.000000pt" height="200.000000pt" viewBox="0 0 200.000000 200.000000"
 preserveAspectRatio="xMidYMid meet">
<metadata>
Created by potrace 1.14, written by Peter Selinger 2001-2017
</metadata>
<g transform="translate(0.000000,200.000000) scale(0.100000,-0.100000)"
fill="#000000" stroke="none">
<path d="M338 1339 l-338 -339 340 -340 340 -340 160 160 160 160 160 -160
160 -160 172 172 c95 95 248 248 340 340 l168 168 -340 340 -340 340 -160
-160 -160 -160 -160 160 c-88 88 -161 160 -162 159 -2 0 -155 -153 -340 -340z
m483 115 l137 -136 -159 -159 -159 -159 159 -159 159 -159 -139 -138 -139
-139 -298 298 -297 297 295 295 c162 162 297 295 300 295 3 0 66 -61 141 -136z
m799 -159 l295 -295 -297 -297 -298 -298 -135 135 c-74 74 -135 138 -135 143
0 4 70 77 155 162 l155 155 -159 159 -159 158 137 137 c75 75 138 136 141 136
3 0 138 -133 300 -295z m-480 -160 l135 -135 -138 -138 -137 -137 -137 137
-138 138 135 135 c74 74 137 135 140 135 3 0 66 -61 140 -135z"/>
</g>
</svg>
